<svg width="25" height="25" viewBox="0 0 25 25" fill="none" xmlns="http://www.w3.org/2000/svg">
<path id="Vector" d="M12.5 0C10.0277 0 7.61099 0.733112 5.55538 2.10663C3.49976 3.48015 1.89761 5.43238 0.951511 7.71646C0.00541607 10.0005 -0.242126 12.5139 0.24019 14.9386C0.722505 17.3634 1.91301 19.5907 3.66117 21.3388C5.40933 23.087 7.63661 24.2775 10.0614 24.7598C12.4861 25.2421 14.9995 24.9946 17.2835 24.0485C19.5676 23.1024 21.5199 21.5002 22.8934 19.4446C24.2669 17.389 25 14.9723 25 12.5C24.9963 9.18592 23.6782 6.00863 21.3348 3.66522C18.9914 1.32182 15.8141 0.00367618 12.5 0ZM6.89468 20.4363C7.53944 19.5547 8.38306 18.8376 9.35701 18.3433C10.331 17.849 11.4078 17.5914 12.5 17.5914C13.5922 17.5914 14.669 17.849 15.643 18.3433C16.6169 18.8376 17.4606 19.5547 18.1053 20.4363C16.4671 21.5981 14.5084 22.2222 12.5 22.2222C10.4916 22.2222 8.5329 21.5981 6.89468 20.4363ZM9.25926 11.5741C9.25926 10.9331 9.44933 10.3066 9.80543 9.77361C10.1615 9.24068 10.6677 8.8253 11.2598 8.58002C11.852 8.33473 12.5036 8.27056 13.1322 8.3956C13.7609 8.52065 14.3383 8.8293 14.7916 9.28252C15.2448 9.73575 15.5534 10.3132 15.6785 10.9418C15.8035 11.5705 15.7393 12.2221 15.4941 12.8142C15.2488 13.4064 14.8334 13.9126 14.3005 14.2686C13.7675 14.6247 13.141 14.8148 12.5 14.8148C11.6405 14.8148 10.8162 14.4734 10.2085 13.8656C9.6007 13.2579 9.25926 12.4336 9.25926 11.5741ZM20.1389 18.5116C19.2387 17.3666 18.0912 16.4399 16.7824 15.8009C17.6165 14.9562 18.1822 13.8837 18.4083 12.7183C18.6345 11.5529 18.5109 10.3467 18.0531 9.25137C17.5954 8.15604 16.8239 7.22055 15.8358 6.56257C14.8477 5.90458 13.6871 5.55351 12.5 5.55351C11.3129 5.55351 10.1523 5.90458 9.16416 6.56257C8.17607 7.22055 7.40463 8.15604 6.94689 9.25137C6.48915 10.3467 6.36555 11.5529 6.59166 12.7183C6.81776 13.8837 7.38346 14.9562 8.2176 15.8009C6.90876 16.4399 5.76133 17.3666 4.86112 18.5116C3.73038 17.0782 3.0261 15.3554 2.82888 13.5404C2.63167 11.7254 2.9495 9.89149 3.74599 8.24869C4.54247 6.6059 5.78543 5.22057 7.33258 4.25129C8.87972 3.28201 10.6685 2.76794 12.4942 2.76794C14.3199 2.76794 16.1087 3.28201 17.6559 4.25129C19.203 5.22057 20.446 6.6059 21.2424 8.24869C22.0389 9.89149 22.3568 11.7254 22.1595 13.5404C21.9623 15.3554 21.258 17.0782 20.1273 18.5116H20.1389Z" fill="#9EB5DB"/>
</svg>
